HIERARCHY
ROOT Hips
{
    OFFSET   0.000000   0.000000   0.000000
    CHANNELS 6 Xposition Yposition Zposition Zrotation Xrotation Yrotation
    JOINT Chest
    {
        OFFSET   0.000000   8.007230   0.000000
        CHANNELS 3 Zrotation Xrotation Yrotation
        JOINT Chest2
        {
            OFFSET   0.000000  22.077100   0.000000
            CHANNELS 3 Zrotation Xrotation Yrotation
            JOINT Neck
            {
                OFFSET   0.000000  23.254800  -0.000021
                CHANNELS 3 Zrotation Xrotation Yrotation
                JOINT Head
                {
                    OFFSET   0.000000  14.370000   1.956610
                    CHANNELS 3 Zrotation Xrotation Yrotation
                    End Site
                    {
                        OFFSET   0.000000  19.566000   0.000000
                    }
                }
            }
            JOINT LeftCollar
            {
                OFFSET   3.911900  19.017000  -0.467063
                CHANNELS 3 Zrotation Xrotation Yrotation
                JOINT LeftShoulder
                {
                    OFFSET  10.383700   0.000000   0.000000
                    CHANNELS 3 Zrotation Xrotation Yrotation
                    JOINT LeftElbow
                    {
                        OFFSET  26.662100   0.001529   0.000325
                        CHANNELS 3 Zrotation Xrotation Yrotation
                        JOINT LeftWrist
                        {
                            OFFSET  28.869000  -0.000011  -0.000096
                            CHANNELS 3 Zrotation Xrotation Yrotation
                            JOINT LeftFinger0
                            {
                                OFFSET   2.044650  -2.323460   3.252850
                                CHANNELS 3 Zrotation Xrotation Yrotation
                                JOINT LeftFinger01
                                {
                                    OFFSET   3.088130   0.000000   0.000000
                                    CHANNELS 3 Zrotation Xrotation Yrotation
                                    JOINT LeftFinger02
                                    {
                                        OFFSET   2.639460   0.000000   0.000000
                                        CHANNELS 3 Zrotation Xrotation Yrotation
                                        End Site
                                        {
                                            OFFSET   2.582190   0.000000   0.000000
                                        }
                                    }
                                }
                            }
                            JOINT LeftFinger1
                            {
                                OFFSET   8.364480   0.000000   3.252850
                                CHANNELS 3 Zrotation Xrotation Yrotation
                                JOINT LeftFinger11
                                {
                                    OFFSET   4.646930   0.000000   0.000000
                                    CHANNELS 3 Zrotation Xrotation Yrotation
                                    JOINT LeftFinger12
                                    {
                                        OFFSET   2.323460   0.000000   0.000000
                                        CHANNELS 3 Zrotation Xrotation Yrotation
                                        End Site
                                        {
                                            OFFSET   2.273050   0.000000   0.000000
                                        }
                                    }
                                }
                            }
                            JOINT LeftFinger2
                            {
                                OFFSET   8.364480   0.000016   1.078090
                                CHANNELS 3 Zrotation Xrotation Yrotation
                                JOINT LeftFinger21
                                {
                                    OFFSET   5.111620   0.000000   0.000000
                                    CHANNELS 3 Zrotation Xrotation Yrotation
                                    JOINT LeftFinger22
                                    {
                                        OFFSET   2.788160   0.000017   0.000000
                                        CHANNELS 3 Zrotation Xrotation Yrotation
                                        End Site
                                        {
                                            OFFSET   2.727660   0.000000   0.000000
                                        }
                                    }
                                }
                            }
                            JOINT LeftFinger3
                            {
                                OFFSET   7.899780   0.000015  -1.078090
                                CHANNELS 3 Zrotation Xrotation Yrotation
                                JOINT LeftFinger31
                                {
                                    OFFSET   4.646920   0.000000   0.000000
                                    CHANNELS 3 Zrotation Xrotation Yrotation
                                    JOINT LeftFinger32
                                    {
                                        OFFSET   2.323470   0.000000   0.000000
                                        CHANNELS 3 Zrotation Xrotation Yrotation
                                        End Site
                                        {
                                            OFFSET   2.273050   0.000000   0.000000
                                        }
                                    }
                                }
                            }
                            JOINT LeftFinger4
                            {
                                OFFSET   7.435090   0.000000  -3.252850
                                CHANNELS 3 Zrotation Xrotation Yrotation
                                JOINT LeftFinger41
                                {
                                    OFFSET   3.717550   0.000000   0.000000
                                    CHANNELS 3 Zrotation Xrotation Yrotation
                                    JOINT LeftFinger42
                                    {
                                        OFFSET   1.858760   0.000000   0.000000
                                        CHANNELS 3 Zrotation Xrotation Yrotation
                                        End Site
                                        {
                                            OFFSET   1.818440   0.000000   0.000000
                                        }
                                    }
                                }
                            }
                        }
                    }
                }
            }
            JOINT RightCollar
            {
                OFFSET  -3.911900  19.017000  -0.467062
                CHANNELS 3 Zrotation Xrotation Yrotation
                JOINT RightShoulder
                {
                    OFFSET -10.383700   0.000015   0.000000
                    CHANNELS 3 Zrotation Xrotation Yrotation
                    JOINT RightElbow
                    {
                        OFFSET -26.662100   0.001341   0.000385
                        CHANNELS 3 Zrotation Xrotation Yrotation
                        JOINT RightWrist
                        {
                            OFFSET -28.869000   0.000025  -0.000080
                            CHANNELS 3 Zrotation Xrotation Yrotation
                            JOINT RightFinger0
                            {
                                OFFSET  -2.044650  -2.323490   3.252850
                                CHANNELS 3 Zrotation Xrotation Yrotation
                                JOINT RightFinger01
                                {
                                    OFFSET  -3.088130   0.000000   0.000000
                                    CHANNELS 3 Zrotation Xrotation Yrotation
                                    JOINT RightFinger02
                                    {
                                        OFFSET  -2.639460   0.000000   0.000000
                                        CHANNELS 3 Zrotation Xrotation Yrotation
                                        End Site
                                        {
                                            OFFSET  -2.582190   0.000000   0.000000
                                        }
                                    }
                                }
                            }
                            JOINT RightFinger1
                            {
                                OFFSET  -8.364480   0.000000   3.252850
                                CHANNELS 3 Zrotation Xrotation Yrotation
                                JOINT RightFinger11
                                {
                                    OFFSET  -4.646930   0.000000   0.000000
                                    CHANNELS 3 Zrotation Xrotation Yrotation
                                    JOINT RightFinger12
                                    {
                                        OFFSET  -2.323470   0.000000   0.000000
                                        CHANNELS 3 Zrotation Xrotation Yrotation
                                        End Site
                                        {
                                            OFFSET  -2.273050   0.000000   0.000000
                                        }
                                    }
                                }
                            }
                            JOINT RightFinger2
                            {
                                OFFSET  -8.364480   0.000000   1.078090
                                CHANNELS 3 Zrotation Xrotation Yrotation
                                JOINT RightFinger21
                                {
                                    OFFSET  -5.111610   0.000000   0.000000
                                    CHANNELS 3 Zrotation Xrotation Yrotation
                                    JOINT RightFinger22
                                    {
                                        OFFSET  -2.788160   0.000000   0.000000
                                        CHANNELS 3 Zrotation Xrotation Yrotation
                                        End Site
                                        {
                                            OFFSET  -2.727660   0.000000   0.000000
                                        }
                                    }
                                }
                            }
                            JOINT RightFinger3
                            {
                                OFFSET  -7.899780   0.000000  -1.078090
                                CHANNELS 3 Zrotation Xrotation Yrotation
                                JOINT RightFinger31
                                {
                                    OFFSET  -4.646920   0.000000   0.000000
                                    CHANNELS 3 Zrotation Xrotation Yrotation
                                    JOINT RightFinger32
                                    {
                                        OFFSET  -2.323470   0.000000   0.000000
                                        CHANNELS 3 Zrotation Xrotation Yrotation
                                        End Site
                                        {
                                            OFFSET  -2.273050   0.000000   0.000000
                                        }
                                    }
                                }
                            }
                            JOINT RightFinger4
                            {
                                OFFSET  -7.435090   0.000000  -3.252850
                                CHANNELS 3 Zrotation Xrotation Yrotation
                                JOINT RightFinger41
                                {
                                    OFFSET  -3.717550   0.000000   0.000000
                                    CHANNELS 3 Zrotation Xrotation Yrotation
                                    JOINT RightFinger42
                                    {
                                        OFFSET  -1.858770   0.000000   0.000000
                                        CHANNELS 3 Zrotation Xrotation Yrotation
                                        End Site
                                        {
                                            OFFSET  -1.818440   0.000000   0.000000
                                        }
                                    }
                                }
                            }
                        }
                    }
                }
            }
        }
    }
    JOINT LeftHip
    {
        OFFSET   9.783010   0.000000   0.000000
        CHANNELS 3 Zrotation Xrotation Yrotation
        JOINT LeftKnee
        {
            OFFSET   0.000070 -41.789100   0.000028
            CHANNELS 3 Zrotation Xrotation Yrotation
            JOINT LeftAnkle
            {
                OFFSET   0.000087 -41.133200  -0.000100
                CHANNELS 3 Zrotation Xrotation Yrotation
                JOINT LeftToe
                {
                    OFFSET   0.000000  -6.358960  14.674500
                    CHANNELS 3 Zrotation Xrotation Yrotation
                    End Site
                    {
                        OFFSET   0.000000   0.000000   3.913200
                    }
                }
            }
        }
    }
    JOINT RightHip
    {
        OFFSET  -9.783020   0.000000   0.000000
        CHANNELS 3 Zrotation Xrotation Yrotation
        JOINT RightKnee
        {
            OFFSET   0.000044 -41.789100  -0.000870
            CHANNELS 3 Zrotation Xrotation Yrotation
            JOINT RightAnkle
            {
                OFFSET  -0.000090 -41.133200  -0.000245
                CHANNELS 3 Zrotation Xrotation Yrotation
                JOINT RightToe
                {
                    OFFSET   0.000000  -6.358960  14.674500
                    CHANNELS 3 Zrotation Xrotation Yrotation
                    End Site
                    {
                        OFFSET   0.000000   0.000000   3.913200
                    }
                }
            }
        }
    }
}
MOTION
Frames: 4
Frame Time:   0.016667
  1.814380  89.013600  -4.244680   1.110830 -22.561700  -1.386160   1.198510  11.966600   0.355040   2.397280  23.937900   0.462586  -0.934054  -1.120400  -0.023660  -1.536020  -2.270030   0.237530 -11.500800 -10.555000   5.340310 -46.695800   5.657190 -63.983800  -2.481730 -15.213500 -46.273000 -39.087800 -39.244300 -27.818200  52.745500  38.738600 -77.360700   1.406510   0.014956  -0.000881   5.703270   0.004913  -0.022877 -88.996200   5.002440  -0.087490 -92.661900   0.003434  -0.017012 -69.496300   0.012834  -0.000927 -89.000000   0.004520   0.008991 -111.372000   0.006485  -0.016430 -79.184100  -0.004899  -0.004774 -88.996200  -4.991300   0.087484 -103.754000   0.005527  -0.007919 -77.811300   0.007395   0.002188 -88.984600  -9.995970   0.176296 -110.000000   0.000352  -0.000536 -80.000000  -0.003920  -0.000607   7.177590  -4.198160  14.917600  50.824700   1.532600  70.622500 -10.451600 -10.121700  44.242100  16.635900 -25.731100  18.861800 -60.859300  37.363500  63.596400 -13.809700  -0.218794  -0.053277 -12.022200  -0.115797   0.033236  88.996100   4.999560   0.088750  90.513300   0.019676   0.040211  67.885000   0.033520  -0.002344  89.000000   0.000615   0.000265 110.524000   0.023704   0.020793  80.029700  -0.001780   0.001253  88.996200  -5.007720  -0.087333 110.000000  -0.005565  -0.002104  80.000000  -0.002193   0.003522  88.984700  -9.996470  -0.176298 110.000000   0.000000  -0.002195  80.008700  -0.004766   0.007967  -1.968020  21.796000   1.249470  -0.315000   3.958060  11.097900  -1.249490  -3.736370  -2.953440   0.000000   0.000000  -0.000000  -3.810780  14.447600  -3.028170  -0.846433  18.725400 -16.345500   4.993110 -10.718800   3.306210   0.000000   0.000000   0.000000
  1.788560  89.022200  -4.245080   1.035880 -22.275400  -1.436200   1.216270  11.807300   0.270795   2.455150  23.617800   0.288417  -0.956108  -1.113840  -0.024417  -1.572140  -2.256780   0.538265 -11.401300 -10.250400   5.331610 -46.677300   5.459250 -62.619000  -1.701160 -14.338300 -47.747200 -37.721500 -40.737600 -27.335300  55.599000  39.720300 -77.914700   0.108957   0.000589  -0.000000   5.054470  -0.001840  -0.013182 -88.996200   5.002390  -0.087494 -90.736500   0.003680  -0.020359 -68.052300   0.015727  -0.000803 -89.000000   0.004532   0.008969 -108.608000   0.002510  -0.012900 -78.178200  -0.004948  -0.004767 -88.996200  -4.991270   0.087482 -101.677000   0.005785  -0.007973 -76.257700   0.007727   0.002276 -88.984600  -9.995950   0.176291 -110.000000   0.000312  -0.000545 -80.000000  -0.003930  -0.000513   7.090370  -4.095930  14.773700  50.914200   1.653410  69.534200 -10.530900  -9.589000  45.134500  14.688400 -25.256700  17.493800 -62.511000  38.882500  68.734600  -9.731840  -0.222454  -0.038089  -9.865960  -0.117305   0.033326  88.996100   4.999520   0.088756  89.327200   0.023775   0.050666  66.995400   0.041952  -0.002415  89.000000   0.000529   0.000244 110.247000   0.034086   0.031840  80.060500  -0.001754   0.001144  88.996200  -5.007710  -0.087344 110.000000  -0.005575  -0.002077  80.000000  -0.002113   0.003534  88.984700  -9.996450  -0.176296 110.000000   0.000000  -0.002207  80.008700  -0.004653   0.008017  -1.866190  21.538800   1.253620  -0.317466   3.912710  11.044300  -1.269550  -3.707860  -2.906210  -0.000000   0.000000   0.000000  -3.656460  14.254600  -2.896000  -0.852995  18.506600 -16.438100   4.896550 -10.636500   3.222960   0.000000   0.000000   0.000000
  1.761460  89.035000  -4.244390   0.918763 -21.915500  -1.502860   1.242090  11.618400   0.183577   2.529850  23.238100   0.106727  -0.984593  -1.115350  -0.025199  -1.619040  -2.259650   0.913397 -11.343900  -9.950330   5.464210 -46.958800   5.354660 -60.913000  -0.580718 -12.892900 -49.447100 -36.020500 -42.638100 -26.837300  56.075100  40.154800 -78.220400  -0.408028   0.053800   0.001118   4.795880   0.023133  -0.024798 -88.996200   5.002340  -0.087492 -89.267000   0.005422  -0.021329 -66.950200   0.017101   0.001229 -89.000000   0.004527   0.008934 -106.523000   0.004970  -0.007616 -78.648400  -0.003351  -0.001620 -88.865500  -4.991250   0.104351 -100.203000   0.007747  -0.007983 -75.152500   0.008212   0.004322 -88.984600  -9.995960   0.176293 -110.000000   0.000270  -0.000540 -80.000000  -0.003912  -0.000427   7.156710  -4.040120  14.819500  50.590300   1.763830  67.970500 -10.739600  -8.852080  46.058700  12.289700 -24.643200  16.052000 -62.682200  39.945200  73.170700  -6.135990  -0.167130  -0.017619  -8.061120  -0.087380   0.024030  88.996100   4.999470   0.088758  87.964600   0.021732   0.049119  65.973500   0.040224  -0.002485  89.000000   0.000455   0.000214 109.182000   0.035396   0.034288  80.031200   0.002141  -0.001311  88.996200  -5.007700  -0.087367 110.000000  -0.005577  -0.002053  80.000000  -0.002036   0.003551  88.984700  -9.996420  -0.176298 110.000000   0.000000  -0.002217  80.008700  -0.004530   0.008054  -1.720180  21.227900   1.250650  -0.318062   3.841920  10.981900  -1.289620  -3.669060  -2.846700  -0.000000   0.000000   0.000000  -3.476220  14.021800  -2.775640  -0.846804  18.242700 -16.527900   4.825210 -10.552800   3.162860  -0.000000   0.000000   0.000000
  1.728550  89.053100  -4.239580   0.783866 -21.504300  -1.575420   1.272560  11.406900   0.099515   2.604500  22.813300  -0.067706  -1.017450  -1.125970  -0.026011  -1.673360  -2.280700   1.312360 -11.293800  -9.663140   5.660720 -47.363100   5.311120 -58.882000   0.683362 -11.137700 -51.343100 -34.076300 -44.782800 -26.318400  55.905800  40.302000 -78.331900  -0.521180   0.190946   0.001836   4.739370   0.091166  -0.092695 -88.996200   5.002280  -0.087489 -87.916700   0.016658  -0.022893 -65.937500   0.020958   0.003992 -89.000000   0.004522   0.008895 -105.407000   0.022190  -0.004095 -79.436700   0.007826   0.016668 -88.734700  -4.991240   0.121220 -98.909300   0.020470  -0.007994 -74.181900   0.010285   0.013213 -88.984600  -9.995970   0.176296 -110.000000   0.000227  -0.000532 -80.000000  -0.003895  -0.000341   7.329790  -4.011990  14.907800  49.863400   1.895920  66.080900 -11.034500  -7.966730  46.950600   9.682660 -23.939900  14.645700 -61.866800  40.614600  76.839600  -2.711700  -0.091955  -0.004280  -6.355850  -0.046785   0.009848  88.996100   4.999410   0.088759  86.381100   0.019689   0.047572  64.785800   0.038496  -0.002552  89.000000   0.000382   0.000179 107.500000   0.036707   0.037324  79.826200   0.014198  -0.009217  88.996200  -5.007690  -0.087389 110.000000  -0.005579  -0.002030  80.000000  -0.001961   0.003565  88.984700  -9.996390  -0.176299 110.000000   0.000000  -0.002226  80.008800  -0.004405   0.008087  -1.552850  20.873600   1.245520  -0.321079   3.761820  10.913500  -1.309690  -3.627230  -2.774890   0.000000   0.000000   0.000000  -3.281530  13.769800  -2.683460  -0.844544  17.933800 -16.601800   4.764210 -10.461100   3.115970   0.000000   0.000000  -0.000000
